<svg width="500" height="500" viewBox="0 0 500 500" fill="none" xmlns="http://www.w3.org/2000/svg">
<rect width="500" height="500" fill="white"/>
<path d="M322.841 222.715C325.713 228.954 327.772 234.795 330.629 240.125C333.06 245.222 336.041 250.038 339.518 254.487C346.22 262.658 354.023 267.573 363.23 269.472C383.657 273.477 407.785 264.525 419.61 246.014C422.004 260.089 413.036 274.546 401.626 282.717C390.961 290.432 377.902 294.108 364.778 293.09C364.587 294.446 364.348 295.995 364.093 297.798C351.087 386.173 328.011 432.164 293.51 438.547C290.879 439.042 288.208 439.288 285.531 439.281C244.838 439.281 208.406 383.907 167.319 283.057C161.769 269.444 153.218 257.697 142.348 248.814C115.827 227.146 102.317 217.202 101.996 211.758C101.468 202.825 111.95 186.275 125.148 181.794C137.989 177.433 150.395 178.608 150.395 178.608C150.395 178.608 177.034 186.516 200.672 195.836C218.411 202.829 237.903 194.595 244.208 177.447L247.906 167.398C252.128 155.91 262.006 147.161 273.987 144.175L299.882 137.719C311.603 134.798 322.039 127.307 329.155 116.702L337.818 103.801C347.01 90.1119 363.313 83.2505 379.053 86.4441L414.288 93.5936C426.697 96.1114 433.824 109.112 429.696 121.564L412.339 173.931C407.728 187.844 394.757 197.163 380.115 197.163L317.813 197.163C306.879 197.163 296.726 203.045 291.246 212.553L285.495 222.529C280.015 232.037 280.015 243.8 285.495 253.308L291.246 263.284C296.726 272.793 306.879 278.675 317.813 278.675H380.115C394.757 278.675 407.728 286.994 412.339 300.907L429.696 353.273C433.824 365.725 426.697 378.726 414.288 381.244L379.053 388.393C363.313 391.587 347.01 384.726 337.818 371.037L329.155 358.135C322.039 347.531 311.603 340.039 299.882 337.119L273.987 330.663C262.006 327.676 252.128 318.927 247.906 307.439L244.208 297.39C237.903 280.243 218.411 272.008 200.672 279.002C177.034 288.321 150.395 296.23 150.395 296.23C150.395 296.23 137.989 297.404 125.148 293.043C111.95 288.562 101.468 272.013 101.996 263.079C102.317 257.636 115.827 247.691 142.348 226.024C153.218 217.14 161.769 205.393 167.319 191.78C208.406 90.9304 244.838 35.5564 285.531 35.5564C288.208 35.5494 290.879 35.7958 293.51 36.2902C328.011 42.6738 351.087 88.6644 364.093 177.04C364.348 178.843 364.587 180.392 364.778 181.748C377.902 180.729 390.961 184.405 401.626 192.121C413.036 200.292 422.004 214.748 419.61 228.824C407.785 210.312 383.657 201.36 363.23 205.365C354.023 207.264 346.22 212.179 339.518 220.35C336.041 224.799 333.06 229.615 330.629 234.713C327.772 240.042 325.713 245.884 322.841 252.123" stroke="#0004EC" stroke-width="4" stroke-linecap="round" stroke-linejoin="round"/>
</svg>
